<?xml version="1.0" encoding="UTF-8" standalone="no"?>
<svg
   xmlns:dc="http://purl.org/dc/elements/1.1/"
   xmlns:cc="http://creativecommons.org/ns#"
   xmlns:rdf="http://www.w3.org/1999/02/22-rdf-syntax-ns#"
   xmlns:svg="http://www.w3.org/2000/svg"
   xmlns="http://www.w3.org/2000/svg"
   xmlns:xlink="http://www.w3.org/1999/xlink"
   version="1.1"
   width="64"
   height="64"
   id="svg4057">
  <defs
     id="defs4059">
    <linearGradient
       id="linearGradient3856-1-6-5">
      <stop
         id="stop3858-0-6-4"
         style="stop-color:#634215;stop-opacity:1"
         offset="0" />
      <stop
         id="stop3860-2-8-2"
         style="stop-color:#93700d;stop-opacity:1"
         offset="1" />
    </linearGradient>
    <linearGradient
       x1="29.126724"
       y1="19.787613"
       x2="29.291178"
       y2="57.567127"
       id="linearGradient3101"
       xlink:href="#linearGradient3117"
       gradientUnits="userSpaceOnUse"
       gradientTransform="matrix(1.4071472,0,-0.00612526,1.4642082,-8.86438,-25.13171)" />
    <linearGradient
       id="linearGradient3117">
      <stop
         id="stop3119"
         style="stop-color:#ffffff;stop-opacity:1"
         offset="0" />
      <stop
         id="stop3121"
         style="stop-color:#ffffff;stop-opacity:0.23529412"
         offset="0.56911701" />
      <stop
         id="stop3123"
         style="stop-color:#ffffff;stop-opacity:0.15686275"
         offset="0.93297637" />
      <stop
         id="stop3125"
         style="stop-color:#ffffff;stop-opacity:0.39215687"
         offset="1" />
    </linearGradient>
    <linearGradient
       x1="24"
       y1="-14.603537"
       x2="24"
       y2="54.669891"
       id="linearGradient3104"
       xlink:href="#linearGradient3846"
       gradientUnits="userSpaceOnUse"
       gradientTransform="matrix(1.3111652,0,0,1.3023893,0.53203,1.4798)" />
    <linearGradient
       id="linearGradient3846">
      <stop
         id="stop3848"
         style="stop-color:#fff3cb;stop-opacity:1"
         offset="0" />
      <stop
         id="stop3850"
         style="stop-color:#fdde76;stop-opacity:1"
         offset="0.26238" />
      <stop
         id="stop3852"
         style="stop-color:#f9c440;stop-opacity:1"
         offset="0.66093999" />
      <stop
         id="stop3854"
         style="stop-color:#e48b20;stop-opacity:1"
         offset="1" />
    </linearGradient>
    <radialGradient
       cx="605.71429"
       cy="486.64789"
       r="117.14286"
       fx="605.71429"
       fy="486.64789"
       id="radialGradient3109"
       xlink:href="#linearGradient5060"
       gradientUnits="userSpaceOnUse"
       gradientTransform="matrix(0.03212956,0,0,0.02058823,38.63678,49.45143)" />
    <linearGradient
       id="linearGradient5060">
      <stop
         id="stop5062"
         style="stop-color:#000000;stop-opacity:1"
         offset="0" />
      <stop
         id="stop5064"
         style="stop-color:#000000;stop-opacity:0"
         offset="1" />
    </linearGradient>
    <radialGradient
       cx="605.71429"
       cy="486.64789"
       r="117.14286"
       fx="605.71429"
       fy="486.64789"
       id="radialGradient3112"
       xlink:href="#linearGradient5060"
       gradientUnits="userSpaceOnUse"
       gradientTransform="matrix(-0.03212956,0,0,0.02058823,25.36322,49.45143)" />
    <linearGradient
       id="linearGradient5048">
      <stop
         id="stop5050"
         style="stop-color:#000000;stop-opacity:0"
         offset="0" />
      <stop
         id="stop5056"
         style="stop-color:#000000;stop-opacity:1"
         offset="0.5" />
      <stop
         id="stop5052"
         style="stop-color:#000000;stop-opacity:0"
         offset="1" />
    </linearGradient>
    <linearGradient
       x1="302.85715"
       y1="366.64789"
       x2="302.85715"
       y2="609.50507"
       id="linearGradient4055"
       xlink:href="#linearGradient5048"
       gradientUnits="userSpaceOnUse"
       gradientTransform="matrix(0.10769232,0,0,0.02058823,-6.92308,49.45143)" />
    <linearGradient
       gradientTransform="scale(2,2)"
       xlink:href="#linearGradient3856-1-6-5"
       id="linearGradient4236"
       x1="16"
       y1="28"
       x2="16"
       y2="5.4861937"
       gradientUnits="userSpaceOnUse" />
    <clipPath
       clipPathUnits="userSpaceOnUse"
       id="clipPath4207">
      <path
         id="path4209"
         d="m 32,18 c -2.209138,0 -4,1.790862 -4,4 0,4 1.333334,9.333334 2.666666,20 l 2.666668,0 C 34.666666,31.333334 36,26 36,22 36,19.790862 34.209138,18 32,18 Z m 0,28 c -2.209138,0 -4,1.790862 -4,4 0,2.209138 1.790862,4 4,4 2.209138,0 4,-1.790862 4,-4 0,-2.209138 -1.790862,-4 -4,-4 z"
         style="opacity:1;fill:url(#linearGradient4211);fill-opacity:1;stroke:none;stroke-width:1;stroke-linejoin:round;stroke-miterlimit:4;stroke-dasharray:none;stroke-opacity:0.49803922" />
    </clipPath>
    <linearGradient
       xlink:href="#linearGradient3856-1-6-5"
       id="linearGradient4211"
       gradientUnits="userSpaceOnUse"
       gradientTransform="scale(2,2)"
       x1="16"
       y1="28"
       x2="16"
       y2="5.4861937" />
  </defs>
  <metadata
     id="metadata4062">
    <rdf:RDF>
      <cc:Work
         rdf:about="">
        <dc:format>image/svg+xml</dc:format>
        <dc:type
           rdf:resource="http://purl.org/dc/dcmitype/StillImage" />
        <dc:title />
      </cc:Work>
    </rdf:RDF>
  </metadata>
  <rect
     style="display:inline;overflow:visible;visibility:visible;opacity:0.3;fill:url(#linearGradient4055);fill-opacity:1;fill-rule:nonzero;stroke:none;stroke-width:1;marker:none"
     id="rect2879"
     y="57.000004"
     x="6"
     height="5"
     width="52" />
  <path
     style="display:inline;overflow:visible;visibility:visible;opacity:0.3;fill:url(#radialGradient3112);fill-opacity:1;fill-rule:nonzero;stroke:none;stroke-width:1;marker:none"
     id="path2881"
     d="m 6,57.00023 c 0,0 0,4.9997 0,4.9997 -1.65459,0.01 -4,-1.1202 -4,-2.5002 0,-1.38 1.8464,-2.4995 4,-2.4995 z" />
  <path
     style="display:inline;overflow:visible;visibility:visible;opacity:0.3;fill:url(#radialGradient3109);fill-opacity:1;fill-rule:nonzero;stroke:none;stroke-width:1;marker:none"
     id="path2883"
     d="m 58,57.00023 c 0,0 0,4.9997 0,4.9997 1.65459,0.01 4,-1.1202 4,-2.5002 0,-1.38 -1.8464,-2.4995 -4,-2.4995 z" />
  <path
     style="fill:url(#linearGradient3104);fill-opacity:1;fill-rule:nonzero;stroke:none"
     id="path11155"
     d="m 61.08012,53.57408 -25.60733,-48 C 34.73676,4.24075 33.40494,3.50001 31.92168,3.50001 c -1.48325,0 -2.82191,0.88888 -3.56912,2.22222 l -25.41664,48 c -0.59827,1.18519 -0.60511,2.81482 0.13155,4 0.73665,1.18519 1.92077,1.77778 3.40403,1.77778 l 51.02395,0 c 1.48326,0 2.82129,-0.74074 3.41957,-1.92593 0.74659,-1.18518 0.75281,-2.66666 0.1651,-4 z" />
  <path
     style="opacity:0.6;fill:none;stroke:url(#linearGradient3101);stroke-width:0.99999994;stroke-miterlimit:4;stroke-dasharray:none;stroke-opacity:1"
     id="path11159"
     d="M 59.23024,52.84872 34.87649,7.10296 c -1.0372,-1.97068 -1.40922,-2.60295 -2.98548,-2.60295 -1.3557,0 -2.06505,0.92082 -3.04475,2.78098 L 4.76283,52.98991 c -1.39848,2.56629 -1.54831,3.23523 -0.87518,4.36475 0.67312,1.12953 1.53739,1.06801 4.73076,1.14169 l 47.33454,0 c 2.97297,0.0368 3.64265,-0.1902 4.18966,-1.31972 0.68257,-1.12953 0.39224,-2.02567 -0.91237,-4.32791 z" />
  <path
     style="color:#000000;display:inline;overflow:visible;visibility:visible;opacity:0.4;fill:none;stroke:#311d00;stroke-width:0.99999982;stroke-linecap:butt;stroke-linejoin:miter;stroke-miterlimit:4;stroke-dasharray:none;stroke-dashoffset:0;stroke-opacity:1;marker:none;enable-background:accumulate"
     id="path11155-59"
     d="M 61.08012,53.57408 35.47279,5.5740799 c -0.73603,-1.33333 -2.06785,-2.07407 -3.55111,-2.07407 -1.48325,0 -2.82191,0.88888 -3.56912,2.22222 L 2.93592,53.72223 c -0.59827,1.18519 -0.60511,2.81482 0.13155,4 0.73665,1.18519 1.92077,1.77778 3.40403,1.77778 l 51.02395,0 c 1.48326,0 2.82129,-0.74074 3.41957,-1.92593 0.74659,-1.18518 0.75281,-2.66666 0.1651,-4 z" />
  <path
     id="path4199"
     d="m 32,19 c -2.209138,0 -4,1.790862 -4,4 0,4 1.333334,9.333334 2.666666,20 l 2.666668,0 C 34.666666,32.333334 36,27 36,23 36,20.790862 34.209138,19 32,19 Z m 0,28 c -2.209138,0 -4,1.790862 -4,4 0,2.209138 1.790862,4 4,4 2.209138,0 4,-1.790862 4,-4 0,-2.209138 -1.790862,-4 -4,-4 z"
     style="opacity:0.3;fill:#ffffff;fill-opacity:1;stroke:none;stroke-width:1;stroke-linejoin:round;stroke-miterlimit:4;stroke-dasharray:none;stroke-opacity:0.49803922" />
  <path
     style="opacity:1;fill:url(#linearGradient4236);fill-opacity:1;stroke:none;stroke-width:1;stroke-linejoin:round;stroke-miterlimit:4;stroke-dasharray:none;stroke-opacity:0.49803922"
     d="m 32,18 c -2.209138,0 -4,1.790862 -4,4 0,4 1.333334,9.333334 2.666666,20 l 2.666668,0 C 34.666666,31.333334 36,26 36,22 36,19.790862 34.209138,18 32,18 Z m 0,28 c -2.209138,0 -4,1.790862 -4,4 0,2.209138 1.790862,4 4,4 2.209138,0 4,-1.790862 4,-4 0,-2.209138 -1.790862,-4 -4,-4 z"
     id="path4159-3" />
  <path
     id="path4203"
     d="m 32,18 c -2.209138,0 -4,1.790862 -4,4 0,4 1.333334,9.333334 2.666666,20 l 2.666668,0 C 34.666666,31.333334 36,26 36,22 36,19.790862 34.209138,18 32,18 Z m 0,28 c -2.209138,0 -4,1.790862 -4,4 0,2.209138 1.790862,4 4,4 2.209138,0 4,-1.790862 4,-4 0,-2.209138 -1.790862,-4 -4,-4 z"
     style="opacity:0.1;fill:none;fill-opacity:1;stroke:#000000;stroke-width:2;stroke-linejoin:round;stroke-miterlimit:4;stroke-dasharray:none;stroke-opacity:1"
     clip-path="url(#clipPath4207)" />
</svg>
