<?xml version="1.0" encoding="UTF-8" standalone="no"?>
<!-- Created with Inkscape (http://www.inkscape.org/) -->

<svg
   xmlns:dc="http://purl.org/dc/elements/1.1/"
   xmlns:cc="http://creativecommons.org/ns#"
   xmlns:rdf="http://www.w3.org/1999/02/22-rdf-syntax-ns#"
   xmlns:svg="http://www.w3.org/2000/svg"
   xmlns="http://www.w3.org/2000/svg"
   xmlns:sodipodi="http://sodipodi.sourceforge.net/DTD/sodipodi-0.dtd"
   xmlns:inkscape="http://www.inkscape.org/namespaces/inkscape"
   width="96"
   height="96"
   id="svg4874"
   version="1.1"
   inkscape:version="0.91+devel r"
   viewBox="0 0 96 96.000001"
   sodipodi:docname="history.svg">
  <defs
     id="defs4876" />
  <sodipodi:namedview
     id="base"
     pagecolor="#ffffff"
     bordercolor="#666666"
     borderopacity="1.0"
     inkscape:pageopacity="0.0"
     inkscape:pageshadow="2"
     inkscape:zoom="8.7812488"
     inkscape:cx="12.412809"
     inkscape:cy="56.142342"
     inkscape:document-units="px"
     inkscape:current-layer="g4780"
     showgrid="true"
     showborder="true"
     fit-margin-top="0"
     fit-margin-left="0"
     fit-margin-right="0"
     fit-margin-bottom="0"
     inkscape:snap-bbox="true"
     inkscape:bbox-paths="true"
     inkscape:bbox-nodes="true"
     inkscape:snap-bbox-edge-midpoints="true"
     inkscape:snap-bbox-midpoints="true"
     inkscape:object-paths="true"
     inkscape:snap-intersection-paths="true"
     inkscape:object-nodes="true"
     inkscape:snap-smooth-nodes="true"
     inkscape:snap-midpoints="true"
     inkscape:snap-object-midpoints="true"
     inkscape:snap-center="true"
     showguides="true"
     inkscape:guide-bbox="true">
    <inkscape:grid
       type="xygrid"
       id="grid5451"
       empspacing="8" />
    <sodipodi:guide
       orientation="1,0"
       position="8,-8.0000001"
       id="guide4063" />
    <sodipodi:guide
       orientation="1,0"
       position="4,-8.0000001"
       id="guide4065" />
    <sodipodi:guide
       orientation="0,1"
       position="-8,88.000001"
       id="guide4067" />
    <sodipodi:guide
       orientation="0,1"
       position="-8,92.000001"
       id="guide4069" />
    <sodipodi:guide
       orientation="0,1"
       position="104,4"
       id="guide4071" />
    <sodipodi:guide
       orientation="0,1"
       position="-5,8.0000001"
       id="guide4073" />
    <sodipodi:guide
       orientation="1,0"
       position="92,-8.0000001"
       id="guide4075" />
    <sodipodi:guide
       orientation="1,0"
       position="88,-8.0000001"
       id="guide4077" />
    <sodipodi:guide
       orientation="0,1"
       position="-8,84.000001"
       id="guide4074" />
    <sodipodi:guide
       orientation="1,0"
       position="12,-8.0000001"
       id="guide4076" />
    <sodipodi:guide
       orientation="0,1"
       position="-5,12"
       id="guide4078" />
    <sodipodi:guide
       orientation="1,0"
       position="84,-9.0000001"
       id="guide4080" />
    <sodipodi:guide
       position="48,-8.0000001"
       orientation="1,0"
       id="guide4170" />
    <sodipodi:guide
       position="-8,48"
       orientation="0,1"
       id="guide4172" />
  </sodipodi:namedview>
  <metadata
     id="metadata4879">
    <rdf:RDF>
      <cc:Work
         rdf:about="">
        <dc:format>image/svg+xml</dc:format>
        <dc:type
           rdf:resource="http://purl.org/dc/dcmitype/StillImage" />
        <dc:title></dc:title>
      </cc:Work>
    </rdf:RDF>
  </metadata>
  <g
     inkscape:label="Layer 1"
     inkscape:groupmode="layer"
     id="layer1"
     transform="translate(67.857146,-78.50504)">
    <g
       transform="matrix(0,-1,-1,0,373.50506,516.50504)"
       id="g4845"
       style="display:inline">
      <g
         inkscape:export-ydpi="90"
         inkscape:export-xdpi="90"
         inkscape:export-filename="next01.png"
         transform="matrix(-0.9996045,0,0,1,575.94296,-611.00001)"
         id="g4778"
         inkscape:label="Layer 1">
        <g
           transform="matrix(-1,0,0,1,575.99999,611)"
           id="g4780"
           style="display:inline">
          <rect
             style="color:#000000;display:inline;overflow:visible;visibility:visible;fill:none;stroke:none;stroke-width:4;marker:none;enable-background:accumulate"
             id="rect4782"
             width="96.037987"
             height="96"
             x="-438.00244"
             y="345.36221"
             transform="scale(-1,1)" />
          <path
             style="color:#000000;font-style:normal;font-variant:normal;font-weight:normal;font-stretch:normal;font-size:medium;line-height:normal;font-family:sans-serif;font-variant-ligatures:none;font-variant-position:normal;font-variant-caps:normal;font-variant-numeric:normal;font-variant-alternates:normal;font-feature-settings:normal;text-indent:0;text-align:start;text-decoration:none;text-decoration-line:none;text-decoration-style:solid;text-decoration-color:#000000;letter-spacing:normal;word-spacing:normal;text-transform:none;direction:ltr;block-progression:tb;writing-mode:lr-tb;baseline-shift:baseline;text-anchor:start;white-space:normal;shape-padding:0;clip-rule:nonzero;display:inline;overflow:visible;visibility:visible;opacity:1;isolation:auto;mix-blend-mode:normal;color-interpolation:sRGB;color-interpolation-filters:linearRGB;solid-color:#000000;solid-opacity:1;fill:#808080;fill-opacity:1;fill-rule:nonzero;stroke:none;stroke-width:4.00079107;stroke-linecap:butt;stroke-linejoin:round;stroke-miterlimit:4;stroke-dasharray:none;stroke-dashoffset:0;stroke-opacity:1;marker:none;color-rendering:auto;image-rendering:auto;shape-rendering:auto;text-rendering:auto;enable-background:accumulate"
             d="m 420.87891,421.82617 c -13.02519,14.12639 -34.00962,17.61704 -50.90821,8.4668 -16.89858,-9.15024 -25.43667,-28.62704 -20.71484,-47.25 4.72183,-18.62296 21.51014,-31.68164 40.72852,-31.68164 l 0,4.00195 c -17.40844,0 -32.5749,11.79684 -36.85157,28.66406 -4.27667,16.86723 3.43743,34.45783 18.74414,42.7461 15.30671,8.28827 34.26279,5.13698 46.06055,-7.65821 l 2.94141,2.71094 z"
             id="path4116"
             inkscape:connector-curvature="0" />
          <path
             style="color:#000000;font-style:normal;font-variant:normal;font-weight:normal;font-stretch:normal;font-size:medium;line-height:normal;font-family:sans-serif;font-variant-ligatures:none;font-variant-position:normal;font-variant-caps:normal;font-variant-numeric:normal;font-variant-alternates:normal;font-feature-settings:normal;text-indent:0;text-align:start;text-decoration:none;text-decoration-line:none;text-decoration-style:solid;text-decoration-color:#000000;letter-spacing:normal;word-spacing:normal;text-transform:none;direction:ltr;block-progression:tb;writing-mode:lr-tb;baseline-shift:baseline;text-anchor:start;white-space:normal;shape-padding:0;clip-rule:nonzero;display:inline;overflow:visible;visibility:visible;opacity:1;isolation:auto;mix-blend-mode:normal;color-interpolation:sRGB;color-interpolation-filters:linearRGB;solid-color:#000000;solid-opacity:1;fill:#808080;fill-opacity:1;fill-rule:nonzero;stroke:none;stroke-width:4.00079107;stroke-linecap:butt;stroke-linejoin:round;stroke-miterlimit:4;stroke-dasharray:8.00158199, 8.00158199;stroke-dashoffset:1.60031641;stroke-opacity:1;marker:none;color-rendering:auto;image-rendering:auto;shape-rendering:auto;text-rendering:auto;enable-background:accumulate"
             d="m 431.99414,394.00977 -0.0137,0.42968 -3.99805,-0.13281 0.0137,-0.42187 0,-0.008 -0.006,-1.35937 0,-0.0254 -0.0527,-1.31446 -0.002,-0.0254 -0.10352,-1.36328 -0.002,-0.01 -0.16016,-1.41016 -0.20312,-1.34961 -0.004,-0.0215 -0.041,-0.21875 3.93164,-0.74414 0.0449,0.24023 0.0117,0.0723 0.2207,1.45703 0.01,0.0723 0.16602,1.45899 0.008,0.0742 0.11133,1.46093 0.006,0.0723 0.0586,1.46094 0,0.0723 0.006,1.45899 z m -1.11914,9.00195 -0.0156,0.0703 -0.36133,1.4082 -0.0195,0.0684 -0.41211,1.39453 -0.0215,0.0703 -0.46289,1.3789 -0.0234,0.0703 -0.51367,1.36328 -0.0273,0.0684 -0.5625,1.3457 -0.0293,0.0664 -0.17969,0.38867 -3.63281,-1.67774 0.15039,-0.32226 0.0137,-0.0312 0.54493,-1.30274 0.004,-0.0117 0.48242,-1.28516 0.004,-0.0117 0.42773,-1.27734 0.40039,-1.35938 0.3418,-1.33789 0.0469,-0.2168 3.9082,0.85352 z m -5.52344,-23.56055 -0.25,-0.63476 -0.0117,-0.0312 -0.54492,-1.24805 -0.0156,-0.0312 -0.60352,-1.25586 -0.0137,-0.0254 -0.68359,-1.29297 -0.002,-0.004 -0.6914,-1.19531 -0.0176,-0.0293 -0.64453,-1.02343 3.38672,-2.12891 0.68359,1.08789 0.0391,0.0625 0.74414,1.28906 0.0371,0.0664 0.69922,1.32227 0.0332,0.0664 0.6543,1.35547 0.0312,0.0684 0.60547,1.38477 0.0273,0.0703 0.26172,0.66601 z m -1.52929,38.8086 -0.0449,0.0605 -0.90625,1.18164 -0.0469,0.0566 -0.95313,1.15235 -0.0488,0.0566 -1.00196,1.12304 -0.0527,0.0547 -1.04883,1.08789 -2.88086,-2.77539 1.02344,-1.06054 0.92773,-1.03711 0.0234,-0.0274 0.88477,-1.0664 0.0215,-0.0274 0.86719,-1.13086 0.0176,-0.0234 0.1875,-0.26563 3.26171,2.31445 z m -6.66993,-51.46875 -0.68554,-0.68946 -0.0215,-0.0215 -0.99219,-0.92774 -0.0195,-0.0176 -0.98828,-0.85938 -0.0117,-0.01 -1.11132,-0.89648 -0.008,-0.008 -1.04687,-0.78516 -0.0176,-0.0117 -0.94922,-0.66015 2.28125,-3.28711 0.9668,0.67187 0.0586,0.043 1.16406,0.87109 0.0566,0.0449 1.13086,0.91406 0.0566,0.0469 1.09766,0.95508 0.0547,0.0488 1.06445,0.99609 0.0527,0.0508 0.70507,0.71093 z m -12.49609,-8.47852 -0.86523,-0.35547 -0.0176,-0.006 -1.32813,-0.49023 -0.0254,-0.01 -1.29101,-0.41992 -1.30469,-0.375 -0.0156,-0.004 -1.39843,-0.3457 -0.0156,-0.004 -1.02734,-0.21289 0.81445,-3.91601 1.10156,0.22851 0.0703,0.0156 1.43164,0.35351 0.0703,0.0195 1.41211,0.40429 0.0703,0.0215 1.39258,0.45508 0.0703,0.0254 1.3711,0.5039 0.0684,0.0274 0.9336,0.38281 z"
             id="ellipse4178"
             inkscape:connector-curvature="0" />
          <path
             style="color:#000000;font-style:normal;font-variant:normal;font-weight:normal;font-stretch:normal;font-size:medium;line-height:normal;font-family:sans-serif;font-variant-ligatures:none;font-variant-position:normal;font-variant-caps:normal;font-variant-numeric:normal;font-variant-alternates:normal;font-feature-settings:normal;text-indent:0;text-align:start;text-decoration:none;text-decoration-line:none;text-decoration-style:solid;text-decoration-color:#000000;letter-spacing:normal;word-spacing:normal;text-transform:none;direction:ltr;block-progression:tb;writing-mode:lr-tb;baseline-shift:baseline;text-anchor:start;white-space:normal;shape-padding:0;clip-rule:nonzero;display:inline;overflow:visible;visibility:visible;opacity:1;isolation:auto;mix-blend-mode:normal;color-interpolation:sRGB;color-interpolation-filters:linearRGB;solid-color:#000000;solid-opacity:1;fill:#808080;fill-opacity:1;fill-rule:nonzero;stroke:none;stroke-width:4.00079107;stroke-linecap:butt;stroke-linejoin:miter;stroke-miterlimit:4;stroke-dasharray:none;stroke-dashoffset:1.5999999;stroke-opacity:1;marker:none;color-rendering:auto;image-rendering:auto;shape-rendering:auto;text-rendering:auto;enable-background:accumulate"
             d="m 387.98242,367.36133 0,26.83008 20.5957,20.58593 2.82813,-2.83007 -19.42187,-19.41407 0,-25.17187 -4.00196,0 z"
             id="path4180"
             inkscape:connector-curvature="0" />
        </g>
      </g>
    </g>
  </g>
</svg>
